<svg width="36" height="36" viewBox="0 0 36 36" fill="none" xmlns="http://www.w3.org/2000/svg">
<path d="M26.3265 9.0929C24.0574 6.96832 21.1128 5.80369 17.989 5.80645C12.367 5.81139 7.51355 9.66615 6.17349 15.0133C6.07594 15.4026 5.72915 15.6774 5.32785 15.6774H1.16877C0.624556 15.6774 0.211137 15.1834 0.311806 14.6485C1.88223 6.309 9.20417 0 18 0C22.8228 0 27.2026 1.89697 30.4342 4.9852L33.0264 2.39298C34.1237 1.29564 36 2.07283 36 3.62475V13.3548C36 14.3169 35.2201 15.0968 34.2581 15.0968H24.528C22.9761 15.0968 22.1989 13.2205 23.2962 12.1231L26.3265 9.0929ZM1.74194 20.9032H11.472C13.0239 20.9032 13.8011 22.7795 12.7038 23.8769L9.67355 26.9072C11.9426 29.0318 14.8874 30.1965 18.0113 30.1936C23.6304 30.1885 28.4858 26.3364 29.8265 20.9868C29.9241 20.5976 30.2708 20.3227 30.6721 20.3227H34.8313C35.3755 20.3227 35.7889 20.8168 35.6883 21.3516C34.1178 29.691 26.7958 36 18 36C13.1772 36 8.79743 34.103 5.56585 31.0148L2.97363 33.607C1.87628 34.7044 0 33.9272 0 32.3752V22.6452C0 21.6831 0.779879 20.9032 1.74194 20.9032Z" fill="#526161"/>
</svg>
