<svg width="36" height="36" viewBox="0 0 36 36" fill="none" xmlns="http://www.w3.org/2000/svg">
<g clip-path="url(#clip0_3519_12552)">
<path d="M16.8751 6.75H21.3751C21.6734 6.75 21.9596 6.63147 22.1705 6.42049C22.3815 6.20952 22.5001 5.92337 22.5001 5.625V3.375C22.5001 3.07663 22.3815 2.79048 22.1705 2.5795C21.9596 2.36853 21.6734 2.25 21.3751 2.25H16.8751C16.5767 2.25 16.2905 2.36853 16.0796 2.5795C15.8686 2.79048 15.7501 3.07663 15.7501 3.375V5.625C15.7501 5.92337 15.8686 6.20952 16.0796 6.42049C16.2905 6.63147 16.5767 6.75 16.8751 6.75ZM16.8751 15.75H25.8751C26.1734 15.75 26.4596 15.6315 26.6705 15.4205C26.8815 15.2095 27.0001 14.9234 27.0001 14.625V12.375C27.0001 12.0766 26.8815 11.7905 26.6705 11.5795C26.4596 11.3685 26.1734 11.25 25.8751 11.25H16.8751C16.5767 11.25 16.2905 11.3685 16.0796 11.5795C15.8686 11.7905 15.7501 12.0766 15.7501 12.375V14.625C15.7501 14.9234 15.8686 15.2095 16.0796 15.4205C16.2905 15.6315 16.5767 15.75 16.8751 15.75ZM34.8751 29.25H16.8751C16.5767 29.25 16.2905 29.3685 16.0796 29.5795C15.8686 29.7905 15.7501 30.0766 15.7501 30.375V32.625C15.7501 32.9234 15.8686 33.2095 16.0796 33.4205C16.2905 33.6315 16.5767 33.75 16.8751 33.75H34.8751C35.1734 33.75 35.4596 33.6315 35.6705 33.4205C35.8815 33.2095 36.0001 32.9234 36.0001 32.625V30.375C36.0001 30.0766 35.8815 29.7905 35.6705 29.5795C35.4596 29.3685 35.1734 29.25 34.8751 29.25ZM16.8751 24.75H30.3751C30.6734 24.75 30.9596 24.6315 31.1705 24.4205C31.3815 24.2095 31.5001 23.9234 31.5001 23.625V21.375C31.5001 21.0766 31.3815 20.7905 31.1705 20.5795C30.9596 20.3685 30.6734 20.25 30.3751 20.25H16.8751C16.5767 20.25 16.2905 20.3685 16.0796 20.5795C15.8686 20.7905 15.7501 21.0766 15.7501 21.375V23.625C15.7501 23.9234 15.8686 24.2095 16.0796 24.4205C16.2905 24.6315 16.5767 24.75 16.8751 24.75ZM12.3751 24.75H9.00005V3.375C9.00005 3.07663 8.88153 2.79048 8.67055 2.5795C8.45957 2.36853 8.17342 2.25 7.87505 2.25H5.62505C5.32669 2.25 5.04054 2.36853 4.82956 2.5795C4.61858 2.79048 4.50005 3.07663 4.50005 3.375V24.75H1.12505C0.12732 24.75 -0.377524 25.9622 0.331226 26.6702L5.95623 33.4202C6.16718 33.6311 6.45322 33.7495 6.75146 33.7495C7.0497 33.7495 7.33574 33.6311 7.54669 33.4202L13.1717 26.6702C13.8762 25.9636 13.3749 24.75 12.3751 24.75Z" fill="#526161"/>
</g>
<defs>
<clipPath id="clip0_3519_12552">
<rect width="36" height="36" fill="white"/>
</clipPath>
</defs>
</svg>
