<svg width="36" height="36" viewBox="0 0 36 36" fill="none" xmlns="http://www.w3.org/2000/svg">
<g clip-path="url(#clip0_3519_12554)">
<path d="M21.375 29.25H16.875C16.5766 29.25 16.2905 29.3685 16.0795 29.5795C15.8685 29.7905 15.75 30.0766 15.75 30.375V32.625C15.75 32.9234 15.8685 33.2095 16.0795 33.4205C16.2905 33.6315 16.5766 33.75 16.875 33.75H21.375C21.6733 33.75 21.9595 33.6315 22.1705 33.4205C22.3814 33.2095 22.5 32.9234 22.5 32.625V30.375C22.5 30.0766 22.3814 29.7905 22.1705 29.5795C21.9595 29.3685 21.6733 29.25 21.375 29.25ZM1.12497 11.25H4.49997V32.625C4.49997 32.9234 4.6185 33.2095 4.82948 33.4205C5.04046 33.6315 5.32661 33.75 5.62497 33.75H7.87497C8.17334 33.75 8.45949 33.6315 8.67047 33.4205C8.88145 33.2095 8.99997 32.9234 8.99997 32.625V11.25H12.375C13.3741 11.25 13.8783 10.0378 13.1702 9.32977L7.54521 2.57977C7.33425 2.36895 7.04821 2.25052 6.74997 2.25052C6.45173 2.25052 6.1657 2.36895 5.95474 2.57977L0.329739 9.32977C-0.376198 10.0364 0.124427 11.25 1.12497 11.25ZM30.375 11.25H16.875C16.5766 11.25 16.2905 11.3685 16.0795 11.5795C15.8685 11.7905 15.75 12.0766 15.75 12.375V14.625C15.75 14.9234 15.8685 15.2095 16.0795 15.4205C16.2905 15.6315 16.5766 15.75 16.875 15.75H30.375C30.6733 15.75 30.9595 15.6315 31.1705 15.4205C31.3814 15.2095 31.5 14.9234 31.5 14.625V12.375C31.5 12.0766 31.3814 11.7905 31.1705 11.5795C30.9595 11.3685 30.6733 11.25 30.375 11.25ZM25.875 20.25H16.875C16.5766 20.25 16.2905 20.3685 16.0795 20.5795C15.8685 20.7905 15.75 21.0766 15.75 21.375V23.625C15.75 23.9234 15.8685 24.2095 16.0795 24.4205C16.2905 24.6315 16.5766 24.75 16.875 24.75H25.875C26.1733 24.75 26.4595 24.6315 26.6705 24.4205C26.8814 24.2095 27 23.9234 27 23.625V21.375C27 21.0766 26.8814 20.7905 26.6705 20.5795C26.4595 20.3685 26.1733 20.25 25.875 20.25ZM34.875 2.25H16.875C16.5766 2.25 16.2905 2.36853 16.0795 2.5795C15.8685 2.79048 15.75 3.07663 15.75 3.375V5.625C15.75 5.92337 15.8685 6.20952 16.0795 6.42049C16.2905 6.63147 16.5766 6.75 16.875 6.75H34.875C35.1733 6.75 35.4595 6.63147 35.6705 6.42049C35.8814 6.20952 36 5.92337 36 5.625V3.375C36 3.07663 35.8814 2.79048 35.6705 2.5795C35.4595 2.36853 35.1733 2.25 34.875 2.25V2.25Z" fill="#526161"/>
</g>
<defs>
<clipPath id="clip0_3519_12554">
<rect width="36" height="36" fill="white"/>
</clipPath>
</defs>
</svg>
