<svg width="32" height="32" viewBox="0 0 32 32" fill="none" xmlns="http://www.w3.org/2000/svg">
<path d="M4 8V20C4 21.0609 4.42143 22.0783 5.17157 22.8284C5.92172 23.5786 6.93913 24 8 24H10.414C10.2289 23.3462 10.1051 22.6767 10.044 22H8C7.46957 22 6.96086 21.7893 6.58579 21.4142C6.21071 21.0391 6 20.5304 6 20V11H11.5C11.7485 10.9998 11.9881 10.9072 12.172 10.74L15.186 8H24C24.5304 8 25.0391 8.21071 25.4142 8.58579C25.7893 8.96086 26 9.46957 26 10V11.2C26.716 11.566 27.386 12.008 28 12.514V10C28 8.93913 27.5786 7.92172 26.8284 7.17157C26.0783 6.42143 25.0609 6 24 6H14.35L12.124 4.22C11.947 4.07799 11.7269 4.0004 11.5 4H8C6.93913 4 5.92172 4.42143 5.17157 5.17157C4.42143 5.92172 4 6.93913 4 8V8ZM6 8C6 7.46957 6.21071 6.96086 6.58579 6.58579C6.96086 6.21071 7.46957 6 8 6H11.15L12.886 7.39L11.114 9H6V8ZM21 30C22.1819 30 23.3522 29.7672 24.4442 29.3149C25.5361 28.8626 26.5282 28.1997 27.364 27.364C28.1997 26.5282 28.8626 25.5361 29.3149 24.4442C29.7672 23.3522 30 22.1819 30 21C30 19.8181 29.7672 18.6478 29.3149 17.5558C28.8626 16.4639 28.1997 15.4718 27.364 14.636C26.5282 13.8003 25.5361 13.1374 24.4442 12.6851C23.3522 12.2328 22.1819 12 21 12C18.6131 12 16.3239 12.9482 14.636 14.636C12.9482 16.3239 12 18.6131 12 21C12 23.3869 12.9482 25.6761 14.636 27.364C16.3239 29.0518 18.6131 30 21 30V30ZM21 16C21.2652 16 21.5196 16.1054 21.7071 16.2929C21.8946 16.4804 22 16.7348 22 17V20H25C25.2652 20 25.5196 20.1054 25.7071 20.2929C25.8946 20.4804 26 20.7348 26 21C26 21.2652 25.8946 21.5196 25.7071 21.7071C25.5196 21.8946 25.2652 22 25 22H22V25C22 25.2652 21.8946 25.5196 21.7071 25.7071C21.5196 25.8946 21.2652 26 21 26C20.7348 26 20.4804 25.8946 20.2929 25.7071C20.1054 25.5196 20 25.2652 20 25V22H17C16.7348 22 16.4804 21.8946 16.2929 21.7071C16.1054 21.5196 16 21.2652 16 21C16 20.7348 16.1054 20.4804 16.2929 20.2929C16.4804 20.1054 16.7348 20 17 20H20V17C20 16.7348 20.1054 16.4804 20.2929 16.2929C20.4804 16.1054 20.7348 16 21 16Z" fill="#666666"/>
</svg>
