<svg width="32" height="32" viewBox="0 0 32 32" fill="none" xmlns="http://www.w3.org/2000/svg">
<path d="M8.5 5.71429H9.475C9.6474 5.21272 9.9668 4.77851 10.3892 4.47148C10.8116 4.16445 11.3161 3.99972 11.8333 4H16.8333C17.3505 3.99972 17.8551 4.16445 18.2775 4.47148C18.6999 4.77851 19.0193 5.21272 19.1917 5.71429H20.1667C20.8297 5.71429 21.4656 5.9852 21.9344 6.46744C22.4033 6.94968 22.6667 7.60373 22.6667 8.28571V10.8571H21V8.28571C21 8.05839 20.9122 7.84037 20.7559 7.67962C20.5996 7.51888 20.3877 7.42857 20.1667 7.42857H19.1917C19.0193 7.93013 18.6999 8.36435 18.2775 8.67138C17.8551 8.97841 17.3505 9.14314 16.8333 9.14286H11.8333C11.3161 9.14314 10.8116 8.97841 10.3892 8.67138C9.9668 8.36435 9.6474 7.93013 9.475 7.42857H8.5C8.27899 7.42857 8.06702 7.51888 7.91074 7.67962C7.75446 7.84037 7.66667 8.05839 7.66667 8.28571V25.4286C7.66667 25.6559 7.75446 25.8739 7.91074 26.0347C8.06702 26.1954 8.27899 26.2857 8.5 26.2857H12.8533V28H8.5C7.83696 28 7.20107 27.7291 6.73223 27.2468C6.26339 26.7646 6 26.1106 6 25.4286V8.28571C6 7.60373 6.26339 6.94968 6.73223 6.46744C7.20107 5.9852 7.83696 5.71429 8.5 5.71429V5.71429ZM11.8333 5.71429C11.6123 5.71429 11.4004 5.80459 11.2441 5.96534C11.0878 6.12608 11 6.3441 11 6.57143C11 6.79876 11.0878 7.01677 11.2441 7.17752C11.4004 7.33827 11.6123 7.42857 11.8333 7.42857H16.8333C17.0543 7.42857 17.2663 7.33827 17.4226 7.17752C17.5789 7.01677 17.6667 6.79876 17.6667 6.57143C17.6667 6.3441 17.5789 6.12608 17.4226 5.96534C17.2663 5.80459 17.0543 5.71429 16.8333 5.71429H11.8333ZM16.8333 12.5714C16.1703 12.5714 15.5344 12.8423 15.0656 13.3246C14.5967 13.8068 14.3333 14.4609 14.3333 15.1429V25.4286C14.3333 26.1106 14.5967 26.7646 15.0656 27.2468C15.5344 27.7291 16.1703 28 16.8333 28H23.5C24.163 28 24.7989 27.7291 25.2678 27.2468C25.7366 26.7646 26 26.1106 26 25.4286V15.1429C26 14.4609 25.7366 13.8068 25.2678 13.3246C24.7989 12.8423 24.163 12.5714 23.5 12.5714H16.8333Z" fill="#666666"/>
</svg>
